Coordinates
version=1
nRows=21
nColumns=27
inDegrees=yes

Units are S.I. units (second, meters, Newtons, ...)
If the header above contains a line with 'inDegrees', this indicates whether rotational values are in degrees (yes) or radians (no).

endheader
time	pelvis_rotation	pelvis_tilt	pelvis_list	pelvis_tx	pelvis_ty	pelvis_tz	hip_flexion_r	hip_adduction_r	hip_rotation_r	knee_angle_r	knee_rotation_r	knee_adduction_r	knee_angle_r_beta	ankle_angle_r	subtalar_angle_r	mtp_angle_r	hip_flexion_l	hip_adduction_l	hip_rotation_l	knee_angle_l	knee_rotation_l	knee_adduction_l	knee_angle_l_beta	ankle_angle_l	subtalar_angle_l	mtp_angle_l
      3.06500000	      3.15107024	    -18.40058089	     -3.62841577	      0.06851001	      0.82134976	     -1.12607476	     31.58735910	    -23.95872135	    -28.51435776	     25.16484846	      0.00000000	      0.32891795	      0.43920946	     -0.92832344	      0.00000000	      0.00000000	     39.51263927	    -26.21077990	     -0.73461218	     26.20024571	      0.00000000	      7.45067919	      0.45728055	     -0.44580935	      0.00000000	      0.00000000
      3.07000000	      2.33269252	    -18.77821917	     -3.03964106	      0.06693485	      0.82059311	     -1.12632469	     33.24936824	    -24.42952137	    -26.42334544	     26.12879514	      0.00000000	     -0.17835214	      0.45603350	     -0.62929390	      0.00000000	      0.00000000	     39.55109729	    -26.09699476	     -2.29852935	     26.42494708	      0.00000000	      6.89282489	      0.46120233	     -0.31587592	      0.00000000	      0.00000000
      3.07500000	      2.79205723	    -19.15111069	     -3.00577508	      0.06592012	      0.82035702	     -1.12643812	     33.58638987	    -24.76070633	    -27.21088498	     26.43059241	      0.00000000	      0.26399674	      0.46130086	     -0.63385100	      0.00000000	      0.00000000	     40.34083316	    -25.79404364	     -1.27626052	     26.57647754	      0.00000000	      7.39180980	      0.46384704	     -0.49395749	      0.00000000	      0.00000000
      3.08000000	      2.01707333	    -19.69273412	     -2.45772228	      0.06395184	      0.81946639	     -1.12661974	     35.47376969	    -25.17189962	    -25.09178721	     27.45285269	      0.00000000	     -0.24735434	      0.47914267	     -0.38288589	      0.00000000	      0.00000000	     40.67695027	    -25.69494811	     -2.61423595	     26.90839352	      0.00000000	      6.90158777	      0.46964006	     -0.37155170	      0.00000000	      0.00000000
      3.08500000	      1.50142124	    -20.25328332	     -1.66158060	      0.06174548	      0.81866316	     -1.12709329	     37.36060557	    -25.95064648	    -23.56078447	     28.53444314	      0.00000000	     -0.29725597	      0.49801998	     -0.14566904	      0.00000000	      0.00000000	     40.92117691	    -25.16772921	     -3.29696902	     26.93439312	      0.00000000	      7.30833832	      0.47009384	     -0.61162136	      0.00000000	      0.00000000
      3.09000000	      1.96966537	    -20.57022379	     -1.67256591	      0.06091366	      0.81822740	     -1.12716883	     37.64237888	    -26.24224684	    -24.23355876	     28.85727669	      0.00000000	      0.08014151	      0.50365449	     -0.11010772	      0.00000000	      0.00000000	     41.79032913	    -24.98311909	     -2.56164906	     27.31483032	      0.00000000	      7.29397254	      0.47673372	     -0.57265688	      0.00000000	      0.00000000
      3.09500000	      1.28420573	    -21.24688105	     -0.91842220	      0.05847021	      0.81716773	     -1.12753368	     39.85383314	    -26.82586659	    -22.11620742	     30.00742326	      0.00000000	     -0.22860827	      0.52372834	      0.11420544	      0.00000000	      0.00000000	     42.23021013	    -24.64256354	     -3.62734555	     27.57805046	      0.00000000	      7.25263201	      0.48132778	     -0.60541022	      0.00000000	      0.00000000
      3.10000000	      0.35726364	    -21.83752955	      0.07736699	      0.05615837	      0.81580641	     -1.12800484	     42.34256879	    -27.46944725	    -19.41775113	     31.34020671	      0.00000000	     -0.55117281	      0.54698980	      0.42620875	      0.00000000	      0.00000000	     42.38870191	    -24.29586386	     -5.50179337	     27.90706572	      0.00000000	      6.73259983	      0.48707018	     -0.49810033	      0.00000000	      0.00000000
      3.10500000	     -0.11090703	    -22.87317605	      0.87200097	      0.05283435	      0.81452285	     -1.12836930	     45.01515387	    -28.02140171	    -17.33440266	     32.56072341	      0.00000000	     -0.87790148	      0.56829183	      0.50501782	      0.00000000	      0.00000000	     43.39856481	    -23.79794888	     -5.87507901	     28.24471471	      0.00000000	      7.21992030	      0.49296327	     -0.66972705	      0.00000000	      0.00000000
      3.11000000	     -0.21927151	    -23.09084494	      1.08215349	      0.05196727	      0.81375226	     -1.12848689	     45.79610445	    -28.23521473	    -16.82826674	     33.09953251	      0.00000000	     -0.65567922	      0.57769582	      0.63549520	      0.00000000	      0.00000000	     43.81882011	    -23.79359773	     -6.39033121	     28.67782326	      0.00000000	      6.62864600	      0.50052244	     -0.52786471	      0.00000000	      0.00000000
      3.11500000	     -0.21761152	    -24.25055198	      1.87439073	      0.04868014	      0.81237403	     -1.12895321	     48.33551892	    -28.95283164	    -15.45747339	     34.26265215	      0.00000000	     -0.67756594	      0.59799609	      0.71316221	      0.00000000	      0.00000000	     45.25195893	    -23.12805463	     -6.15303313	     29.11816962	      0.00000000	      7.22061174	      0.50820793	     -0.76162844	      0.00000000	      0.00000000
      3.12000000	     -0.36640768	    -23.80950282	      2.19772896	      0.04891200	      0.81188264	     -1.12913008	     48.33715062	    -29.29487042	    -15.24711307	     34.64531086	      0.00000000	     -0.16080407	      0.60467474	      0.80089374	      0.00000000	      0.00000000	     44.66073940	    -23.03789142	     -6.96601524	     29.17309208	      0.00000000	      6.73319572	      0.50916651	     -0.73229212	      0.00000000	      0.00000000
      3.12500000	     -0.59314208	    -24.15613794	      2.72837536	      0.04739496	      0.81080922	     -1.12940887	     49.70704042	    -29.67474686	    -14.15234508	     35.42468512	      0.00000000	      0.00906890	      0.61827739	      0.89244989	      0.00000000	      0.00000000	     45.04098476	    -22.80262835	     -7.57895024	     29.51497865	      0.00000000	      6.52668103	      0.51513356	     -0.72697458	      0.00000000	      0.00000000
      3.13000000	     -0.74526352	    -24.47183738	      3.24508437	      0.04595991	      0.80971740	     -1.12964304	     50.98774549	    -30.06809095	    -13.19372713	     36.18318836	      0.00000000	      0.21229343	      0.63151577	      0.97950788	      0.00000000	      0.00000000	     45.43312618	    -22.56084336	     -8.11055129	     29.86089458	      0.00000000	      6.31208091	      0.52117093	     -0.73408009	      0.00000000	      0.00000000
      3.13500000	     -0.66981170	    -24.67457191	      3.43664642	      0.04491525	      0.80883898	     -1.12966576	     51.68705199	    -30.31956636	    -12.91069065	     36.69881608	      0.00000000	      0.45243703	      0.64051517	      1.00740113	      0.00000000	      0.00000000	     45.93875988	    -22.48367771	     -8.16034564	     30.25137472	      0.00000000	      6.07876185	      0.52798609	     -0.71130385	      0.00000000	      0.00000000
      3.14000000	     -0.48505116	    -24.79478497	      3.66441068	      0.04405335	      0.80792746	     -1.12974652	     52.23648144	    -30.70431894	    -12.88944606	     37.21828100	      0.00000000	      0.86874626	      0.64958155	      1.08739451	      0.00000000	      0.00000000	     46.38439746	    -22.32925188	     -8.14113395	     30.62006703	      0.00000000	      5.84216492	      0.53442099	     -0.70080821	      0.00000000	      0.00000000
      3.14500000	      0.20372397	    -25.66026571	      3.83662363	      0.04173447	      0.80665552	     -1.12981720	     53.47539778	    -31.20774709	    -13.04416420	     37.88389473	      0.00000000	      1.03248344	      0.66119870	      1.12078382	      0.00000000	      0.00000000	     48.15489162	    -21.96349433	     -6.94915014	     31.30144673	      0.00000000	      6.09268875	      0.54631331	     -0.78908821	      0.00000000	      0.00000000
      3.15000000	      0.36967368	    -24.87202459	      3.63930673	      0.04293662	      0.80636419	     -1.12961353	     52.36420888	    -31.42104094	    -14.15538254	     37.92327341	      0.00000000	      1.84738616	      0.66188598	      1.20650305	      0.00000000	      0.00000000	     47.54141610	    -22.17435661	     -7.21325494	     31.44942236	      0.00000000	      5.35984118	      0.54889597	     -0.63243120	      0.00000000	      0.00000000
      3.15500000	      0.57921331	    -24.92532072	      3.83364395	      0.04220685	      0.80538275	     -1.12965719	     52.78165629	    -31.81812032	    -14.24238208	     38.41399679	      0.00000000	      2.28476664	      0.67045072	      1.30058376	      0.00000000	      0.00000000	     47.93532135	    -22.04412774	     -7.19968841	     31.82753043	      0.00000000	      5.06572749	      0.55549520	     -0.58292125	      0.00000000	      0.00000000
      3.16000000	      0.61733039	    -25.84247558	      4.28259956	      0.03940314	      0.80377304	     -1.12980292	     54.79072184	    -32.11776768	    -13.05977964	     39.26874459	      0.00000000	      2.19457598	      0.68536889	      1.30766815	      0.00000000	      0.00000000	     49.32653581	    -21.79101441	     -7.08217649	     32.47411570	      0.00000000	      5.15904138	      0.56678024	     -0.60524138	      0.00000000	      0.00000000
      3.16500000	      0.44344920	    -24.96536767	      4.46636657	      0.04051320	      0.80320729	     -1.12975575	     54.13716234	    -32.44412753	    -13.30753458	     39.53943255	      0.00000000	      2.93760849	      0.69009328	      1.49190376	      0.00000000	      0.00000000	     48.25634195	    -21.90481269	     -8.17254137	     32.51040925	      0.00000000	      4.30027323	      0.56741368	     -0.49623677	      0.00000000	      0.00000000
